Coordinates
version=1
nRows=38
nColumns=12
inDegrees=yes

Units are S.I. units (second, meters, Newtons, ...)
Angles are in degrees

endheader
time	SC_y	SC_z	SC_x	AC_y	AC_z	AC_x	GH_y	GH_z	GH_yy	EL_x	PS_y
       0.0              -11.42          21.51          44.64          46.94         -2.327         -1.302          130.6          36.37         -54.42          99.97          76.36
   0.01811              -11.43          21.52          44.64          46.94         -2.325           -1.3          130.6          36.36          -54.4          99.96          76.36
   0.03623              -11.43          21.52          44.64          46.94         -2.323         -1.297          130.5          36.36         -54.37          99.95          76.36
   0.05434              -11.44          21.52          44.65          46.94         -2.321         -1.294          130.5          36.36         -54.34          99.94          76.36
   0.07246              -11.45          21.52          44.65          46.94         -2.319         -1.291          130.4          36.36          -54.3          99.93          76.36
   0.09057              -11.46          21.52          44.66          46.94         -2.317         -1.288          130.4          36.35         -54.27          99.91          76.36
    0.1087              -11.46          21.52          44.66          46.94         -2.315         -1.285          130.3          36.35         -54.23           99.9          76.35
    0.1268              -11.47          21.52          44.67          46.94         -2.313         -1.281          130.3          36.35         -54.19          99.88          76.35
    0.1449              -11.48          21.53          44.67          46.94          -2.31         -1.277          130.2          36.35         -54.15          99.86          76.35
     0.163              -11.49          21.53          44.68          46.94         -2.307         -1.273          130.2          36.34          -54.1          99.85          76.35
    0.1811               -11.5          21.53          44.69          46.94         -2.304         -1.268          130.1          36.34         -54.05          99.83          76.35
    0.1993              -11.52          21.53          44.69          46.94         -2.301         -1.263          130.0          36.33          -54.0          99.81          76.35
    0.2174              -11.53          21.53           44.7          46.94         -2.298         -1.258          129.9          36.33         -53.94          99.78          76.35
    0.2355              -11.54          21.54          44.71          46.94         -2.294         -1.253          129.8          36.33         -53.88          99.76          76.34
    0.2536              -11.56          21.54          44.72          46.94          -2.29         -1.246          129.8          36.32         -53.81          99.73          76.34
    0.2717              -11.57          21.54          44.73          46.94         -2.285          -1.24          129.7          36.32         -53.74          99.71          76.34
    0.2898              -11.59          21.55          44.74          46.93         -2.281         -1.232          129.5          36.31         -53.66          99.68          76.34
    0.3079              -11.61          21.55          44.75          46.93         -2.276         -1.225          129.4           36.3         -53.57          99.64          76.34
    0.3261              -11.63          21.55          44.76          46.93          -2.27         -1.216          129.3           36.3         -53.48          99.61          76.33
    0.3442              -11.65          21.56          44.78          46.93         -2.264         -1.207          129.1          36.29         -53.37          99.57          76.33
    0.3623              -11.68          21.56          44.79          46.93         -2.257         -1.196          129.0          36.28         -53.26          99.52          76.33
    0.3804              -11.71          21.57          44.81          46.93         -2.249         -1.185          128.8          36.27         -53.14          99.47          76.32
    0.3985              -11.74          21.57          44.83          46.93         -2.241         -1.172          128.6          36.26          -53.0          99.42          76.32
    0.4166              -11.77          21.58          44.85          46.92         -2.232         -1.158          128.4          36.25         -52.85          99.36          76.31
    0.4348              -11.81          21.58          44.87          46.92         -2.222         -1.143          128.2          36.24         -52.68           99.3          76.31
    0.4529              -11.85          21.59           44.9          46.92          -2.21         -1.126          127.9          36.23         -52.49          99.22           76.3
     0.471               -11.9           21.6          44.92          46.92         -2.198         -1.106          127.6          36.21         -52.28          99.14           76.3
    0.4891              -11.95          21.61          44.96          46.92         -2.183         -1.084          127.3          36.19         -52.04          99.05          76.29
    0.5072              -12.01          21.62          44.99          46.91         -2.167          -1.06          126.9          36.18         -51.77          98.94          76.28
    0.5253              -12.08          21.63          45.03          46.91         -2.149         -1.032          126.5          36.15         -51.46          98.82          76.27
    0.5434              -12.16          21.65          45.08           46.9         -2.128        -0.9999          126.0          36.13         -51.11          98.69          76.26
    0.5616              -12.25          21.66          45.13           46.9         -2.103        -0.9633          125.4           36.1         -50.71          98.53          76.25
    0.5797              -12.35          21.68          45.19          46.89         -2.076         -0.921          124.8          36.07         -50.25          98.35          76.24
    0.5978              -12.47           21.7          45.27          46.89         -2.043        -0.8719          124.0          36.03         -49.71          98.15          76.22
    0.6159              -12.61          21.73          45.35          46.88         -2.005        -0.8144          123.1          35.98         -49.08           97.9          76.21
     0.634              -12.77          21.76          45.45          46.87         -1.961        -0.7467          122.1          35.93         -48.34          97.61          76.19
    0.6521              -12.97          21.79          45.57          46.86         -1.908        -0.6662          120.9          35.87         -47.46          97.27          76.16
    0.6702               -13.2          21.84          45.71          46.85         -1.844        -0.5697          119.4          35.79          -46.4          96.86          76.13
